<?xml version="1.0" encoding="UTF-8" standalone="no"?>
<!-- Created with Inkscape (http://www.inkscape.org/) -->

<svg
   xmlns:dc="http://purl.org/dc/elements/1.1/"
   xmlns:cc="http://creativecommons.org/ns#"
   xmlns:rdf="http://www.w3.org/1999/02/22-rdf-syntax-ns#"
   xmlns:svg="http://www.w3.org/2000/svg"
   xmlns="http://www.w3.org/2000/svg"
   xmlns:sodipodi="http://sodipodi.sourceforge.net/DTD/sodipodi-0.dtd"
   xmlns:inkscape="http://www.inkscape.org/namespaces/inkscape"
   id="svg3004"
   version="1.1"
   inkscape:version="0.48.3.1 r9886"
   width="765"
   height="990"
   xml:space="preserve"
   sodipodi:docname="Puzzle.pdf"><metadata
     id="metadata3010"><rdf:RDF><cc:Work
         rdf:about=""><dc:format>image/svg+xml</dc:format><dc:type
           rdf:resource="http://purl.org/dc/dcmitype/StillImage" /><dc:title></dc:title></cc:Work></rdf:RDF></metadata><defs
     id="defs3008"><inkscape:path-effect
       effect="bend_path"
       id="path-effect3074"
       is_visible="true"
       bendpath="m -0.13554716,0.51734392 1.26054266,0"
       prop_scale="1"
       scale_y_rel="false"
       vertical="false" /></defs><sodipodi:namedview
     pagecolor="#ffffff"
     bordercolor="#666666"
     borderopacity="1"
     objecttolerance="10"
     gridtolerance="10"
     guidetolerance="10"
     inkscape:pageopacity="0"
     inkscape:pageshadow="2"
     inkscape:window-width="1600"
     inkscape:window-height="876"
     id="namedview3006"
     showgrid="false"
     inkscape:zoom="1.0413754"
     inkscape:cx="171.52693"
     inkscape:cy="714.39443"
     inkscape:window-x="1600"
     inkscape:window-y="24"
     inkscape:window-maximized="1"
     inkscape:current-layer="g3050" /><g
     id="g3012"
     inkscape:groupmode="layer"
     inkscape:label="TimeWPCPuzzles"
     transform="matrix(1.25,0,0,-1.25,0,990)"><g
       id="g3050"
       transform="matrix(434.10001,0,0,370.86,94.490363,338.34396)"><path
   style="fill:#000000"
   d="m 0.23946749,-0.10717588 c -0.0129312,0.007583 -0.0233715,0.0230141 -0.0265746,0.03927816 -6.0922e-4,0.003093 -0.00112,0.0094128 -0.001134,0.01404431 l -2.678e-5,0.0084205 -0.0150552,0.0028594 c -0.0469038,0.0089065 -0.074218,0.02207623 -0.0958638,0.0462192 -0.02166929,0.02416889 -0.03570968,0.05656445 -0.04680189,0.10798568 -0.0026297,0.0121927 -0.0087071,0.044694 -0.0087071,0.0465671 0,1.7183e-4 -0.0023406,9.9701e-4 -0.0052013,0.001834 -0.01977189,0.005783 -0.0392667993,0.0379972 -0.05976321,0.0987531 -0.0083384,0.024719 -0.01897566,0.0620846 -0.02649616,0.0930797 l -0.005325,0.0219471 -0.0066998,7.323e-4 c -0.04061395,0.00444 -0.05991874,0.0625148 -0.0329436,0.0991057 0.01551922,0.0210514 0.04524813,0.0261361 0.06546491,0.0111966 l 0.0044135,-0.003261 0.0032255,0.003617 c 0.0078436,0.008797 0.01181143,0.0252943 0.0109517,0.0455377 -3.5984e-4,0.00847 -4.0564e-4,0.008583 -0.00383278,0.00943 -0.0066417,0.001641 -0.01610714,0.008645 -0.02250508,0.0166513 -0.01223181,0.0153064 -0.02229829,0.0381878 -0.03244139,0.0737425 l -0.0049639,0.0173979 -0.0066809,-0.001259 c -0.01419302,-0.002675 -0.03093429,0.003681 -0.04202246,0.0159569 -0.0205338,0.0227322 -0.0214583,0.0598162 -0.002102,0.08429 0.0133328,0.0168572 0.03261801,0.0226942 0.05291962,0.0160171 0.003242,-0.001066 0.0062516,-0.001468 0.0066897,-8.9189e-4 0.0025438,0.003349 0.05303362,0.10023563 0.05676906,0.10893627 0.01228611,0.0286161 0.02054565,0.0587817 0.02266024,0.0827587 l 7.6297e-4,0.008652 -0.0031384,8.98e-6 c -0.0091439,2.614e-5 -0.02935724,0.007947 -0.04011149,0.0157173 -0.0057151,0.004129 -0.0057593,0.004138 -0.01832059,0.003696 -0.01069542,-3.7695e-4 -0.01365572,-2.388e-5 -0.01965852,0.002344 -0.03566959,0.0140747 -0.0463919,0.0670477 -0.01994913,0.0985566 0.01984422,0.023645 0.05246261,0.023762 0.07254292,2.559e-4 0.02270492,-0.026577 0.01889461,-0.071699 -0.0077779,-0.0920991 l -0.0067692,-0.005177 0.0025766,-0.001966 c 0.0054222,-0.004136 0.01716053,-0.009852 0.02556979,-0.0124502 0.01306339,-0.004037 0.03051592,-0.003825 0.04475136,5.4415e-4 0.01023211,0.003141 0.02915803,0.0126425 0.02915386,0.0146372 -1.07e-6,5.0854e-4 -0.0022131,0.00256 -0.0049172,0.004559 -0.0027029,0.001995 -0.0067844,0.006123 -0.0090694,0.009165 -0.02728191,0.03628 -0.01013111,0.092355 0.03049799,0.099717 0.0402081,0.00728 0.0711065,-0.042602 0.0530616,-0.085672 -0.003631,-0.00866 -0.0120866,-0.019732 -0.0191216,-0.0250229 l -0.002654,-0.001996 0.008138,-0.005937 c 0.0320904,-0.0234125 0.0851777,-0.0393678 0.13731884,-0.0412709 0.0159255,-5.8129e-4 0.0662156,0.00283 0.0678336,0.004602 0.001428,0.001563 -9.1851e-4,0.0171729 -0.004475,0.0297732 -0.002718,0.009626 -0.002962,0.0100238 -0.005725,0.009321 -0.013521,-0.003438 -0.0178879,-0.003833 -0.0256061,-0.002314 -0.0280351,0.005517 -0.04711,0.0360487 -0.0425803,0.0681553 0.004246,0.030093 0.024058,0.05005 0.0499711,0.050334 0.0229029,2.508e-4 0.0412064,-0.014623 0.0489131,-0.039747 0.00322,-0.010504 0.003203,-0.028868 -3.636e-5,-0.03941 -0.00325,-0.010567 -0.009389,-0.020579 -0.0167125,-0.0272423 l -0.006158,-0.005605 0.003054,-0.0111347 c 0.001679,-0.006124 0.003671,-0.0158789 0.004427,-0.0216779 0.001256,-0.009639 0.001569,-0.0104947 0.003652,-0.00997 0.001253,3.1577e-4 0.0106538,0.001812 0.0208917,0.003324 0.0350728,0.005182 0.0458924,0.0102839 0.0700067,0.0330119 0.004855,0.004576 0.008951,0.008415 0.009101,0.008532 1.5063e-4,1.1614e-4 -0.001726,0.002752 -0.004171,0.005845 -0.002444,0.003106 -0.006249,0.00991 -0.008453,0.0151291 -0.003613,0.00856 -0.00405,0.010718 -0.004436,0.021958 0.001085,0.027683 0.009154,0.046264 0.0280658,0.057353 0.007859,0.00454 0.008971,0.00484 0.0204145,0.00521 0.0100427,3.391e-4 0.0132059,-4.34e-5 0.0185841,-0.00225 0.0210081,-0.00861 0.0345811,-0.030802 0.0345387,-0.056475 0.003089,-0.027537 -0.020608,-0.0406585 -0.024048,-0.0552964 0,-0.006772 0.005851,-0.0353963 0.0104404,-0.0510783 0.0181762,-0.0621055 0.0557018,-0.11453887 0.0994806,-0.1390006 0.0400783,-0.0223941 0.0773476,-0.0188538 0.10311261,0.009794 0.0209075,0.0232474 0.0320393,0.0572903 0.0355428,0.10869552 0.001318,0.0193333 4.2534e-4,0.0485903 -0.002338,0.0766603 l -0.001302,0.0132169 -0.004491,-9.1464e-4 c -0.0117445,-0.002386 -0.0244356,-1.4986e-4 -0.0351275,0.006211 -0.007233,0.00431 -0.0177317,0.017648 -0.0216151,0.027481 -0.002979,0.00755 -0.003508,0.010504 -0.003916,0.021901 -3.9502e-4,0.011034 -8.562e-5,0.014581 0.001901,0.021788 0.009465,0.034337 0.0427923,0.050794 0.0712378,0.035179 0.007897,-0.00433 0.0195433,-0.017968 0.0232465,-0.027212 0.00832,-0.020773 0.006363,-0.044308 -0.005227,-0.062728 l -0.004835,-0.00768 0.004078,-0.00129 c 0.029295,-0.00922 0.0632951,-5.137e-4 0.0848741,0.021738 l 0.005252,0.0054 -0.006464,0.00788 c -0.0102005,0.012423 -0.0144297,0.024728 -0.0144297,0.041911 0,0.023493 0.0111221,0.044026 0.029319,0.054116 0.007095,0.00394 0.007865,0.00408 0.0215954,0.00408 0.013772,0 0.0144764,-1.344e-4 0.0217077,-0.00414 0.0134741,-0.00747 0.0247931,-0.023702 0.0280452,-0.040218 0.002702,-0.013691 5.2025e-4,-0.032149 -0.005126,-0.043433 -0.006943,-0.013883 -0.0218264,-0.02687 -0.0332553,-0.029008 l -0.004141,-7.755e-4 0.002525,-0.00785 c 0.0156379,-0.0485971 0.0431453,-0.0780614 0.0728581,-0.0780397 0.0110969,7.68e-6 0.0203216,0.002911 0.0334409,0.0105237 0.012599,0.00731 0.02363,0.0166997 0.038488,0.032756 l 0.010466,0.0113115 -0.00586,0.002538 c -0.034759,0.015008 -0.044709,0.067806 -0.018541,0.098385 0.024884,0.029079 0.067547,0.020617 0.082511,-0.016365 0.00343,-0.00848 0.00406,-0.014636 0.00418,-0.02615 6.04e-5,-0.00548 -8.879e-4,-0.017721 -0.00351,-0.024222 -0.00851,-0.021093 -0.025613,-0.0344092 -0.044627,-0.0347475 l -0.00756,-1.347e-4 -0.00697,-0.008282 c -0.016315,-0.0193894 -0.036355,-0.0366264 -0.051157,-0.0439991 -0.010819,-0.005391 -0.0199743,-0.00764 -0.031176,-0.007662 l -0.00967,-1.896e-5 6.5937e-4,-0.0163413 c 0.001767,-0.0436614 0.003661,-0.0696922 0.009443,-0.12912813 0.0107939,-0.1110164 0.0121826,-0.12753827 0.0142543,-0.1698211 0.00162,-0.0329496 7.302e-4,-0.0942202 -0.0017,-0.1179135 -0.004234,-0.041227 -0.0137452,-0.0814093 -0.0263331,-0.11124026 C 0.94427593,0.34062015 0.90377042,0.28723911 0.85826311,0.25079715 0.80748889,0.21013826 0.76112085,0.18705763 0.64913324,0.14669958 l -0.0437968,-0.0157835 -2.1385e-4,-0.007512 C 0.60476,0.11066881 0.60371116,0.10538346 0.59967134,0.09593015 0.58577158,0.06340733 0.55087915,0.05310175 0.52464179,0.07376972 c -0.005548,0.0043706 -0.005711,0.0044135 -0.008114,0.0021436 C 0.50532766,0.06533281 0.48764373,0.05040606 0.47996807,0.04505342 0.4605633,0.03152141 0.44116749,0.02471848 0.42509621,0.02580747 l -0.008567,5.8048e-4 -0.004049,-0.0071555 c -0.009095,-0.01607874 -0.0330805,-0.03906518 -0.052831,-0.05063157 -0.0104934,-0.0061443 -0.0255294,-0.01279247 -0.0365262,-0.01614779 l -0.009581,-0.0029238 0,-0.0067414 c 0,-0.0079559 -0.003001,-0.02001024 -0.00694,-0.02787842 -0.003662,-0.007316 -0.0144599,-0.0189589 -0.0211641,-0.0228225 -0.00473,-0.002726 -0.008206,-0.004648 -0.0228881,-0.005006 -0.010953,2.4362e-4 -0.0153825,0.001877 -0.0230997,0.005758 z m 0.0342913,0.001191 c 0.0130588,0.00407 0.0245434,0.015274 0.030686,0.02993645 0.002818,0.0067263 0.003087,0.0085973 0.003089,0.0215248 3.29e-6,0.01379005 -1.0401e-4,0.01441218 -0.004121,0.02393088 -0.006768,0.01603985 -0.0187997,0.02648632 -0.0340221,0.02953853 -0.0191006,0.0038303 -0.0393661,-0.0091022 -0.0481036,-0.03069619 -0.003285,-0.0081163 -0.003535,-0.0096867 -0.003535,-0.02219212 0,-0.01241866 2.6285e-4,-0.01410049 0.003406,-0.02178839 0.009842,-0.02407556 0.0318352,-0.0367255 0.0525993,-0.03025383 z m 0.0565184,0.06692261 c 0.0237924,0.008952 0.0468442,0.02436364 0.0629168,0.04206235 0.007806,0.00859598 0.0178133,0.02216384 0.0178133,0.02415143 0,4.1438e-4 -0.003573,0.0027837 -0.007938,0.0052644 -0.0196396,0.01116126 -0.0364029,0.03566807 -0.0505144,0.07384955 l -0.005921,0.0160209 -0.005862,-3.8356e-4 c -0.0142347,-9.3147e-4 -0.0297549,0.006484 -0.0395866,0.0189148 -0.009544,0.0120677 -0.0138505,0.024835 -0.0138505,0.0410663 0,0.0177319 0.004545,0.0300579 0.0158647,0.0430325 l 0.007912,0.009068 -0.002804,0.009516 c -0.002449,0.008314 -0.002814,0.0117193 -0.002882,0.0269655 L 0.3053472,0.2879155 0.2951669,0.2912715 C 0.275802,0.2976555 0.2614552,0.3079524 0.2450731,0.3272259 0.2091073,0.3695396 0.1846209,0.44362195 0.1679303,0.56061692 c -0.00434,0.0304195 -0.009851,0.076424 -0.009851,0.0822323 0,0.002794 -3.7602e-4,0.00318 -0.002463,0.002525 -0.001355,-4.2505e-4 -0.004435,-7.8953e-4 -0.006844,-8.0996e-4 -0.002409,-2.037e-5 -0.004978,-4.8173e-4 -0.005708,-0.001025 -9.3399e-4,-6.956e-4 -0.001827,-0.0131189 -0.003015,-0.0419552 C 0.12974143,0.35130982 0.09891331,0.18728924 0.05764516,0.16315155 0.05416839,0.16111775 0.05114231,0.15933644 0.0509176,0.15919252 0.05034964,0.15882591 0.0568877,0.12354616 0.06025085,0.10882922 0.0672107,0.07837315 0.077399,0.04965091 0.08766039,0.03155946 c 0.01034699,-0.01824218 0.0269047,-0.03562149 0.04297157,-0.04510332 0.01569,-0.0092588 0.0385886,-0.01714942 0.0650906,-0.02242807 0.0166939,-0.0033253 0.0169268,-0.0033127 0.018282,9.3384e-4 0.004912,0.01539537 0.0149511,0.02867148 0.0263856,0.0348931945 0.0204717,0.0111385355 0.0445106,0.005922095 0.0593879,-0.0128877945 0.006418,-0.008115 0.009287,-0.01367151 0.0115261,-0.02232581 7.2944e-4,-0.002819 0.00152,-0.0058476 0.001756,-0.0067288 6.7763e-4,-0.0025249 0.004032,-0.0019353 0.0172164,0.0030248 z m 0.0710155,0.04631871 c 0.001362,0.0020325 0.001323,0.002078 -4.134e-4,4.839e-4 -0.001054,-9.6746e-4 -0.001916,-0.001977 -0.001916,-0.0022434 0,-0.0010549 8.9915e-4,-3.7592e-4 0.002329,0.0017586 z m 0.0443032,0.02725224 c 0.0167111,0.0049791 0.0402774,0.02068274 0.0611236,0.04073161 l 0.008386,0.0080658 -0.002091,0.0034692 c -0.0149937,0.02488479 -0.0128611,0.05740142 0.005147,0.07848007 0.0108961,0.0127537 0.0277917,0.0195034 0.0422001,0.0168585 l 0.006364,-0.001168 0.004335,0.0105768 c 0.005928,0.0144614 0.007188,0.0239184 0.005411,0.0405891 -7.6873e-4,0.00721 -0.001809,0.0140092 -0.002312,0.0151088 -5.0272e-4,0.0011 -0.003051,0.00269 -0.005665,0.003536 -0.0133054,0.004305 -0.0405388,0.038484 -0.0515208,0.0646606 l -0.003595,0.008571 -0.005518,8.023e-5 c -0.0153429,2.2311e-4 -0.0302482,0.00926 -0.0401317,0.0243311 l -0.002876,0.004384 -0.0100503,-0.008058 c -0.0324396,-0.0260079 -0.0638998,-0.0436912 -0.0941654,-0.0529291 -0.0108696,-0.003318 -0.0151547,-0.003931 -0.031337,-0.004488 l -0.0187444,-6.4468e-4 -6.7805e-4,-0.007594 c -8.1336e-4,-0.009109 5.8054e-4,-0.0217018 0.003719,-0.0335944 0.002082,-0.007888 0.002536,-0.008654 0.004691,-0.00791 0.001313,4.5306e-4 0.006076,0.001745 0.0105843,0.002872 0.024978,0.006239 0.0511336,-0.0124553 0.0584896,-0.041806 0.002419,-0.009653 0.002242,-0.0248472 -4.0585e-4,-0.0348783 -0.004509,-0.0170802 -0.0158687,-0.0314433 -0.030009,-0.037945 l -0.005019,-0.002308 0.004732,-0.0123 c 0.0110653,-0.02876087 0.0187825,-0.04294455 0.0312864,-0.05750494 0.009583,-0.01115874 0.0186968,-0.0177593 0.0280784,-0.02033481 0.007577,-0.0020805 0.0204093,-0.0015831 0.0295687,0.0011458 z M 0.5650077,0.07088474 c 0.008357,0.0026044 0.0161631,0.0080607 0.0221728,0.01549952 0.006647,0.0082261 0.009684,0.01508936 0.0117079,0.02645186 0.006264,0.0351665 -0.021792,0.0692502 -0.0516944,0.0628008 C 0.5344408,0.17288589 0.5242305,0.16548939 0.5171028,0.15383829 0.5046185,0.13343129 0.5059554,0.10596428 0.5203598,0.08692221 0.5311613,0.07264321 0.5495065,0.06605351 0.5650074,0.07088463 z M 0.3493083,0.12984149 c 0.0130588,0.00407 0.0245434,0.015274 0.030686,0.0299364 0.002818,0.006726 0.003087,0.008597 0.003089,0.0215248 3.29e-6,0.01379 -1.0402e-4,0.0144122 -0.004121,0.0239309 -0.006657,0.0157761 -0.0184639,0.0261965 -0.0333576,0.0294387 -0.0189839,0.004132 -0.0394496,-0.008654 -0.0485483,-0.0303324 -0.003554,-0.008467 -0.003754,-0.009665 -0.003754,-0.0224292 0,-0.0124717 2.5695e-4,-0.01411 0.003422,-0.0218153 0.006148,-0.0149672 0.0146226,-0.0238851 0.0276254,-0.0290731 0.008327,-0.003323 0.0167991,-0.003723 0.0249572,-0.001181 z m 0.28142146,0.0168108 c 0.0876642,0.0311819 0.12407448,0.0464918 0.16331443,0.0686711 0.0341188,0.0192846 0.0576078,0.0362373 0.0821207,0.0592692 0.0406961,0.0382361 0.0759158,0.0915489 0.0925586,0.1401081 0.008799,0.0256859 0.0151506,0.0558466 0.0187031,0.0888818 0.002336,0.0217317 0.004103,0.0664415 0.003358,0.085231 -0.002563,0.0650056 -0.003951,0.0837438 -0.0132064,0.17815195 -0.002702,0.0274919 -0.005378,0.0551759 -0.005971,0.0615202 -0.002689,0.0291255 -0.00534,0.0741433 -0.005567,0.0942027 -1.7081e-4,0.0156761 -5.4045e-4,0.0179434 -0.002929,0.0179434 -9.6918e-4,0 -0.005807,0.002293 -0.010756,0.005096 -0.0193154,0.0109441 -0.036857,0.0360704 -0.0481597,0.0689875 l -0.004696,0.013696 -0.007474,0.00135 c -0.004116,7.459e-4 -0.0100617,0.00239 -0.0132254,0.00364 -0.005542,0.0022 -0.005845,0.0022 -0.008307,-6.72e-5 -0.0157351,-0.014458 -0.0239776,-0.020288 -0.0332982,-0.023552 -0.002563,-8.964e-4 -0.004658,-0.00199 -0.004658,-0.00242 0,-4.384e-4 0.001755,-0.00568 0.003914,-0.0116523 0.0116397,-0.0323083 0.0179873,-0.0741217 0.0179873,-0.11851519 l 0,-0.0142266 0.006413,-0.001552 c 0.0234436,-0.005668 0.0406381,-0.0304456 0.0406381,-0.0585588 0,-0.0329699 -0.0227467,-0.0596784 -0.0507288,-0.0595663 -0.0140005,5.602e-5 -0.0249522,0.004747 -0.0344698,0.0147626 -0.011261,0.011848 -0.0166037,0.0264498 -0.0166037,0.045358 0,0.0127696 0.00231,0.0223552 0.007789,0.0323484 0.008307,0.0151598 0.0249484,0.0265387 0.0389868,0.0266636 l 0.003522,3.134e-5 -5.6229e-4,0.0169821 C 0.8477815,0.92896019 0.8433375,0.95785439 0.832425,0.9899867 0.826668,1.0069375 0.827274,1.0060778 0.8221108,1.004674 c -0.0110085,-0.00299 -0.037737,-0.00128 -0.051558,0.00332 -0.001444,4.805e-4 -0.004449,-5.369e-4 -0.007994,-0.0027 -0.005032,-0.00308 -0.005618,-0.00386 -0.005136,-0.00683 0.005391,-0.0332453 0.005384,-0.0926973 -1.511e-5,-0.12447405 -0.007917,-0.0465915 -0.0280112,-0.0814938 -0.0546011,-0.0948355 l -0.004926,-0.002472 0.00287,-0.009342 c 0.0169862,-0.0552929 0.0413095,-0.0931274 0.0779866,-0.12130645 0.0127721,-0.009813 0.0398112,-0.0256035 0.0403856,-0.0235852 0.001113,0.003909 0.00861,0.0135744 0.0141166,0.0181849 0.0155205,0.0130095 0.0355075,0.0150912 0.0529507,0.005516 0.007928,-0.004349 0.0195527,-0.0179758 0.0232252,-0.0272115 0.0133756,-0.0336451 -1.3938e-4,-0.0716145 -0.0296296,-0.0832438 -0.0127974,-0.005046 -0.0301219,-0.003301 -0.0412238,0.004152 l -0.004381,0.00294 -0.004722,-0.006687 c -0.002601,-0.003677 -0.007398,-0.009106 -0.0106677,-0.0120614 l -0.005946,-0.005374 0.002247,-0.003372 c 0.004482,-0.006715 0.0126977,-0.0216446 0.0140977,-0.0255994 0.001427,-0.004039 0.001452,-0.004047 0.009784,-0.004063 0.014787,-2.691e-5 0.0259116,-0.004982 0.0361867,-0.0161174 0.0180327,-0.0195422 0.0214275,-0.0532867 0.007726,-0.0767884 -0.004002,-0.006858 -0.0129034,-0.016473 -0.0181577,-0.0196055 -0.0123088,-0.007342 -0.0283974,-0.008768 -0.0412175,-0.003654 -0.006704,0.002675 -0.007537,0.002762 -0.008963,9.2817e-4 -0.005504,-0.007113 -0.0240268,-0.0160816 -0.0362271,-0.0175447 -0.003901,-4.6803e-4 -0.007108,-9.1551e-4 -0.007133,-9.9438e-4 -2.095e-5,-7.896e-5 -7.1986e-4,-0.004619 -0.001553,-0.0100895 -0.002083,-0.0136782 -0.007953,-0.0270573 -0.016754,-0.0381836 l -0.007119,-0.009001 0.00233,-0.008309 c 0.006231,-0.0222207 1.8494e-4,-0.0494064 -0.0141918,-0.0638112 -0.0273169,-0.0273704 -0.0696143,-0.0153994 -0.0820582,0.023224 -0.009356,0.0290375 0.002009,0.0622636 0.0258245,0.0755025 0.007575,0.00421 0.009547,0.00474 0.0195135,0.005245 0.009357,4.7425e-4 0.0121902,1.2484e-4 0.0181459,-0.002238 0.008845,-0.00351 0.0173948,-0.0100895 0.0231238,-0.0177983 l 0.004424,-0.005952 0.005863,0.007447 c 0.00744,0.009449 0.0133889,0.0226624 0.0154735,0.0343665 8.9516e-4,0.005026 0.001485,0.009241 0.00131,0.009367 -1.7451e-4,1.2625e-4 -0.00352,9.6698e-4 -0.007435,0.001868 -0.0118165,0.002721 -0.0210048,0.009256 -0.0334662,0.023803 -0.0200178,0.0233682 -0.0381148,0.0597199 -0.0564918,0.11347589 -0.003858,0.011285 -0.006899,0.0184791 -0.007743,0.0183167 -0.002664,-5.1301e-4 -0.0142019,-0.00405 -0.0145269,-0.004453 -1.8019e-4,-2.2349e-4 -0.001632,-0.0133833 -0.003227,-0.0292439 -0.0133382,-0.13265777 -0.0328229,-0.20755324 -0.0580402,-0.2230961 -0.004071,-0.00251 -0.00495,-0.00364 -0.004496,-0.005787 3.0983e-4,-0.001467 0.001099,-0.008292 0.001754,-0.0151659 0.001736,-0.0182269 -5.9937e-4,-0.0332569 -0.007225,-0.04649 l -0.002729,-0.005451 0.005716,-0.003391 c 0.008576,-0.005086 0.0178006,-0.016082 0.022273,-0.0265467 0.002099,-0.004913 0.003818,-0.009781 0.003818,-0.0108204 0,-0.001107 6.4518e-4,-0.001597 0.001559,-0.001187 8.5772e-4,3.8528e-4 0.0123139,0.004526 0.0254569,0.009201 z m -0.57363019,0.0232648 c 0.01852244,0.0134047 0.03670933,0.064452 0.05015045,0.14076314 0.0140105,0.0795434 0.024288,0.1922365 0.0284648,0.31211482 l 7.3743e-4,0.0211647 -0.007554,0.002848 c -0.004155,0.001567 -0.009759,0.004493 -0.0124528,0.006503 l -0.004898,0.003655 -0.003563,-0.004598 C 0.10602478,0.64983916 0.09519996,0.63508145 0.08392861,0.61957334 0.04269265,0.56283684 0.02460979,0.54475272 0.00468022,0.54031927 l -0.00622258,-0.001384 -4.8723e-4,-0.017356 c -5.7753e-4,-0.0205725 -0.00269406,-0.0285763 -0.01007935,-0.0381258 l -0.0047228,-0.006106 0.003603,-0.005146 c 0.00779685,-0.0111373 0.0113885,-0.0232447 0.01141123,-0.0384689 4.105e-5,-0.0267927 -0.01426183,-0.0493603 -0.03623491,-0.0571728 -0.004137,-0.001471 -0.0075216,-0.002995 -0.0075216,-0.003385 0,-0.00224 0.01218637,-0.0495457 0.01824294,-0.0708127 0.02151987,-0.0755719 0.04332454,-0.12163418 0.06311335,-0.13332655 0.0082652,-0.004884 0.01365876,-0.004661 0.02131787,8.8218e-4 z m 0.0080519,0.002675 c 0.0013622,0.002033 0.001323,0.002078 -4.134e-4,4.839e-4 -0.0010539,-9.6746e-4 -0.0019164,-0.001977 -0.0019164,-0.002243 0,-0.001055 8.9914e-4,-3.7592e-4 0.0023292,0.001759 z m -0.0406517,0.002086 c 0,2.6614e-4 -8.6226e-4,0.001275 -0.0019164,0.002243 -0.0017371,0.001594 -0.001775,0.001549 -4.134e-4,-4.8391e-4 0.0014303,-0.002135 0.0023292,-0.002814 0.0023292,-0.001759 z m 0.69436693,0.0440712 c 0.0348154,0.0200629 0.0348986,0.0766209 1.4207e-4,0.0966499 -0.007027,0.00405 -0.008008,0.004265 -0.0194673,0.004265 -0.0108179,0 -0.0127192,-3.577e-4 -0.0183659,-0.003455 -0.007249,-0.003977 -0.0170873,-0.0143252 -0.0209303,-0.0220164 -0.006043,-0.0120955 -0.007777,-0.028525 -0.00442,-0.0419038 0.00405,-0.0161379 0.0152421,-0.029876 0.0292252,-0.0358711 0.004427,-0.001899 0.008061,-0.002372 0.016196,-0.002112 0.00927,2.9604e-4 0.0113165,8.122e-4 0.0176196,0.004445 z m -0.13527626,0.040132 c 0.0192912,0.0139561 0.0372581,0.0779923 0.0490588,0.17485146 0.002834,0.0232668 0.007182,0.0648414 0.007191,0.0687695 3.29e-6,0.001592 -0.001434,0.002351 -0.005743,0.003036 -0.007941,0.001261 -0.016825,0.005269 -0.0229577,0.0103584 l -0.005165,0.004286 -0.007974,-0.007036 c -0.009053,-0.007987 -0.0162428,-0.0115703 -0.0257354,-0.0128281 l -0.006563,-8.6927e-4 -6.8094e-4,-0.0110691 c -0.001255,-0.0203998 -0.00597,-0.0353415 -0.0159537,-0.0505489 l -0.005724,-0.00872 0.003781,-0.0049 c 0.008773,-0.0113658 0.0127926,-0.0241686 0.0127926,-0.0407374 0,-0.0269464 -0.0140311,-0.0491791 -0.0358587,-0.0568197 -0.002559,-8.9588e-4 -0.004653,-0.001985 -0.004653,-0.002419 0,-4.3418e-4 0.002115,-0.005133 0.004699,-0.0104417 0.0109025,-0.0223946 0.0305653,-0.0476091 0.0434772,-0.0557532 0.005745,-0.003624 0.0101589,-0.003392 0.0160094,8.3994e-4 z m 0.30713187,0.0252162 c 0.001363,0.002033 0.001326,0.002078 -4.1345e-4,4.839e-4 -0.001054,-9.6746e-4 -0.001919,-0.001977 -0.001919,-0.002243 0,-0.001055 8.9923e-4,-3.7591e-4 0.002336,0.001759 z m -0.55221036,0.009398 c 0.0207692,0.002709 0.0443087,0.0115501 0.0684011,0.0256893 0.0133481,0.007833 0.0352967,0.0231153 0.0470096,0.0327307 l 0.008426,0.006917 -0.001669,0.005408 c -0.002347,0.007605 -0.003111,0.023235 -0.00156,0.0319639 0.003196,0.0179973 0.0132931,0.0330119 0.027863,0.041432 0.007892,0.004561 0.009555,0.005035 0.0192848,0.005492 0.0115362,5.4237e-4 0.0198285,-0.001435 0.0277818,-0.006627 l 0.004242,-0.002769 0.005407,0.007049 c 0.009619,0.0125386 0.0146152,0.0283607 0.0167087,0.0529032 5.3974e-4,0.006327 3.5101e-4,0.007514 -0.001298,0.008165 -0.0116322,0.004588 -0.0267531,0.0208803 -0.0356407,0.0384016 -0.0207717,0.0409499 -0.0381844,0.11371651 -0.047203,0.19725942 -0.005206,0.0482325 -0.006518,0.0733773 -0.006581,0.12622164 -5.848e-5,0.0491102 7.2652e-4,0.0663795 0.004421,0.0972439 0.001954,0.0163277 0.002044,0.0160436 -0.005521,0.0173975 -0.002459,4.4016e-4 -0.007262,0.002387 -0.0106714,0.004326 l -0.0062,0.003526 -0.008582,-0.008268 c -0.0184538,-0.0177786 -0.0336176,-0.0271723 -0.0507362,-0.0314299 -0.0113696,-0.002828 -0.0588385,-0.009741 -0.0668865,-0.009741 l -0.006608,0 7.2132e-4,-0.006088 c 0.001554,-0.0131144 0.004002,-0.0249396 0.009098,-0.0439493 0.002921,-0.0108974 0.005936,-0.0228779 0.006699,-0.026623 0.001124,-0.005523 0.001724,-0.006638 0.003176,-0.005902 9.847e-4,4.9883e-4 0.006277,0.001177 0.0117597,0.001507 0.0152437,9.176e-4 0.0264511,-0.003704 0.0372561,-0.0153619 0.0214658,-0.0231613 0.0212036,-0.0657883 -5.4309e-4,-0.0883132 -0.005459,-0.005654 -0.0155204,-0.0118316 -0.0225946,-0.0138722 l -0.004379,-0.001264 -1.0862e-4,-0.0356031 c -9.241e-5,-0.0302855 -4.536e-4,-0.0378252 -0.002419,-0.0504811 -0.005559,-0.0358027 -0.0168692,-0.056382 -0.0342799,-0.0623706 -0.006282,-0.002161 -0.006438,-0.002324 -0.006404,-0.006701 6.263e-5,-0.007945 0.002051,-0.030997 0.003954,-0.0458196 l 0.001849,-0.0144188 0.008404,0 c 0.0221026,0 0.0414179,-0.0173643 0.0476675,-0.0428528 0.001405,-0.005731 0.001737,-0.010708 0.001348,-0.0201861 -4.6507e-4,-0.0113052 -9.3202e-4,-0.013561 -0.004612,-0.0222752 -0.0154606,-0.0366179 -0.0550545,-0.045283 -0.0805689,-0.0176323 -0.0109492,0.0118657 -0.0164172,0.0265253 -0.0163902,0.0439383 3.943e-5,0.0254362 0.0150736,0.0500853 0.0344143,0.056424 0.003772,0.001236 0.004915,0.002174 0.004537,0.00372 -0.001365,0.005577 -0.004011,0.0296455 -0.004932,0.0448583 -5.6827e-4,0.009381 -0.00119,0.0171827 -0.001382,0.0173361 -1.9218e-4,1.5349e-4 -0.004662,9.7909e-4 -0.009933,0.001834 -0.0239953,0.003895 -0.0510978,0.0200482 -0.0998501,0.0595111 l -0.0196498,0.0159058 -0.004985,-0.004456 c -0.002742,-0.00245 -0.007084,-0.005649 -0.009648,-0.007109 -0.004247,-0.002416 -0.004613,-0.003 -0.004113,-0.006557 3.0188e-4,-0.002147 0.001567,-0.0131334 0.002811,-0.0244121 0.0156541,-0.14190142 0.0399932,-0.23002251 0.0776475,-0.2811254 0.0188643,-0.0256019 0.044477,-0.0420395 0.0700084,-0.0449297 0.0136027,-0.00154 0.0134345,-0.00154 0.0250517,-2.396e-5 z m 0.18973338,0.041897 c 0.009186,0.005171 0.0175348,0.0149083 0.0221072,0.0257801 0.003343,0.00795 0.003542,0.009215 0.003542,0.0225471 0,0.0132265 -2.2249e-4,0.0146752 -0.003496,0.0227648 -0.004463,0.0110287 -0.011968,0.0198209 -0.0217056,0.0254279 -0.007268,0.004185 -0.008155,0.004383 -0.0196727,0.004383 -0.0108116,0 -0.0127141,-3.5801e-4 -0.0183601,-0.003455 -0.00725,-0.003978 -0.0170825,-0.0143205 -0.0209436,-0.0220327 -0.007284,-0.0145493 -0.008086,-0.0334593 -0.002059,-0.0485364 0.005721,-0.0143107 0.0149231,-0.0239337 0.0281919,-0.0294811 0.004132,-0.001727 0.007926,-0.00219 0.0153432,-0.001872 0.008375,3.5902e-4 0.0109353,0.001031 0.0170528,0.004475 z m 0.26326014,0.0274073 c 0.004217,0.001746 0.0104909,0.005278 0.0139197,0.00785 l 0.006236,0.004675 -0.006577,0.007337 c -0.0271312,0.0302921 -0.0183117,0.0826268 0.0167097,0.0991651 l 0.004141,0.001956 -0.005517,0.0108621 c -0.00303,0.005974 -0.007259,0.0129615 -0.009393,0.0155279 l -0.003888,0.004666 -0.006666,-0.003171 c -0.0298516,-0.0142002 -0.0697984,-0.005865 -0.10451396,0.0218048 l -0.00867,0.006911 -0.00242,-0.005263 c -0.002995,-0.006514 -0.007385,-0.012252 -0.0136758,-0.0178724 l -0.004826,-0.004313 0.007051,-0.020377 c 0.0261505,-0.0755783 0.05352,-0.12013844 0.0808172,-0.13157768 0.008136,-0.00341 0.026818,-0.002497 0.0372547,0.001819 z m 0.067872,0.0145222 c 0.0180959,0.0101601 0.0292634,0.0344586 0.0260215,0.0566158 -0.002601,0.0177339 -0.0123846,0.0328404 -0.0262689,0.0405392 -0.00688,0.003818 -0.008244,0.004112 -0.0189367,0.004112 -0.0109075,0 -0.0119175,-2.3255e-4 -0.0191614,-0.004403 -0.0323779,-0.0186561 -0.0357638,-0.0688323 -0.006249,-0.0926025 0.008585,-0.006919 0.0147807,-0.008832 0.0270756,-0.008366 0.00938,3.5546e-4 0.0118922,9.4505e-4 0.0175189,0.004104 z m -0.89940256,0.005282 c 0.003271,0.001134 0.0079799,0.003454 0.0104644,0.005156 0.006571,0.004498 0.01541128,0.0160145 0.01880852,0.0245001 0.00264608,0.00661 0.00295159,0.008836 0.00295159,0.0214983 0,0.0134135 -1.8359e-4,0.0145619 -0.00364341,0.0227876 -0.0046357,0.0110211 -0.01234291,0.0200436 -0.02175834,0.0254694 -0.0070293,0.004051 -0.0080052,0.004265 -0.01949037,0.004265 -0.01141628,0 -0.01249188,-2.3121e-4 -0.01928496,-0.004146 -0.0091881,-0.005295 -0.0175414,-0.0150727 -0.02206487,-0.0258282 -0.003343,-0.00795 -0.0035424,-0.009215 -0.0035424,-0.0225471 0,-0.0128705 2.7188e-4,-0.0147734 0.0030602,-0.0214209 0.0036308,-0.008654 0.01148066,-0.019237 0.01767522,-0.02383 0.01021822,-0.007576 0.02511316,-0.009963 0.03682245,-0.005903 z m 0.38785974,0.0309552 c 0.009664,0.005293 0.0180825,0.0147412 0.0227742,0.0255573 0.003563,0.008212 0.003718,0.009168 0.003718,0.0227409 0,0.0132751 -2.2047e-4,0.0147134 -0.003496,0.0228079 -0.006435,0.0159011 -0.0194762,0.0274166 -0.0345229,0.0304837 -0.0188229,0.003837 -0.039111,-0.008982 -0.0481213,-0.030407 -0.003428,-0.00815 -0.003643,-0.009459 -0.003643,-0.0221468 0,-0.0124982 2.5497e-4,-0.0141145 0.003487,-0.0221016 0.004379,-0.0108217 0.0116448,-0.0199976 0.0199229,-0.0251623 0.008556,-0.005338 0.0132286,-0.006547 0.0237211,-0.006141 0.007202,2.7943e-4 0.0101501,0.001076 0.0161594,0.004368 z m 0.23769377,0.0982576 c 0.004281,0.00253 0.009677,0.006577 0.0119894,0.008995 l 0.004206,0.004395 -0.003556,0.00605 c -0.005215,0.008872 -0.007763,0.0177921 -0.008403,0.0294124 -0.001036,0.0188272 0.003513,0.0334091 0.0144155,0.046197 0.004286,0.005028 0.009371,0.009353 0.0143126,0.0121763 0.007524,0.004297 0.007924,0.004377 0.0218985,0.004377 0.0137284,0 0.0144954,-1.4499e-4 0.0215955,-0.004081 0.0129224,-0.007166 0.0230772,-0.020736 0.0272439,-0.0364071 0.00225,-0.008461 0.002785,-0.0245582 0.001051,-0.0316343 -9.8857e-4,-0.004035 -8.2513e-4,-0.00435 0.004764,-0.009183 0.0219238,-0.0189585 0.0452625,-0.0292393 0.0692005,-0.0304831 0.0230555,-0.001198 0.0401687,0.005691 0.0551028,0.022182 0.0109201,0.0120513 0.0109959,0.0123303 0.005694,0.0190695 -0.00481,0.006108 -0.007701,0.0121043 -0.0104909,0.0217645 -0.00231,0.00802 -0.002386,0.0259641 -1.2789e-4,0.0346752 0.001135,0.004387 0.001288,0.006557 4.743e-4,0.006879 -0.004242,0.001685 -0.0285173,0.0164505 -0.0360933,0.0219499 -0.0220356,0.0159979 -0.0423445,0.0388076 -0.0561349,0.0630474 -0.009024,0.015861 -0.0203072,0.0422835 -0.0260623,0.0610301 -0.003635,0.0118405 -0.003683,0.0119175 -0.006945,0.0112585 -0.0151025,-0.003053 -0.0224561,-0.003518 -0.0331953,-0.002106 -0.0141182,0.001857 -0.0273608,0.006287 -0.0404356,0.0135256 -0.0554376,0.0306906 -0.0980541,0.099116 -0.11158386,0.17915904 -0.002477,0.014656 -0.003276,0.0175333 -0.004691,0.0168906 -0.003521,-0.0016 -0.0137491,-0.004436 -0.0159958,-0.004436 -0.002145,0 -0.002482,-0.001217 -0.004172,-0.0150596 -0.001011,-0.008283 -0.00237,-0.0202503 -0.00302,-0.0265946 -0.001533,-0.0149659 -0.002183,-0.10533073 -9.1327e-4,-0.12688521 0.009069,-0.15393067 0.0410449,-0.2741433 0.0789486,-0.29680857 0.007281,-0.004353 0.009697,-0.004998 0.016688,-0.004455 0.004624,3.598e-4 0.008654,0.001804 0.0142339,0.005102 z m 0.0659777,0.001243 c 0.0130588,0.00407 0.0245434,0.0152742 0.030686,0.0299365 0.002815,0.006721 0.003087,0.008602 0.003089,0.0214649 3.28e-6,0.0132141 -2.1712e-4,0.0146428 -0.00351,0.0227802 -0.006587,0.0162791 -0.0194742,0.0277148 -0.0345201,0.0306332 -0.0192342,0.003731 -0.0389264,-0.008707 -0.047996,-0.0303163 -0.003554,-0.008467 -0.003754,-0.009665 -0.003754,-0.0224292 0,-0.0124565 2.6183e-4,-0.0141314 0.003436,-0.0219735 0.009711,-0.0239916 0.0317223,-0.0365931 0.0525689,-0.0300958 z M 0.870998,0.53947535 c 0.009658,0.002111 0.0185996,0.008047 0.0259344,0.0172247 0.009127,0.0114251 0.0116523,0.0191706 0.0116902,0.0359579 2.537e-5,0.0117988 -2.511e-4,0.013506 -0.003484,0.0214985 -0.007322,0.0180974 -0.0219274,0.0300135 -0.0384199,0.0313368 -0.0145774,0.00117 -0.0258927,-0.004126 -0.0362738,-0.0169739 -0.0172387,-0.021336 -0.0168334,-0.0529752 9.4519e-4,-0.0737412 0.006754,-0.007888 0.0139677,-0.012531 0.0230661,-0.0148448 0.007739,-0.001968 0.009418,-0.002015 0.0165481,-4.5773e-4 z m -0.8612618,0.009083 c 0.01555823,0.006813 0.03636848,0.0286428 0.06343439,0.0665395 0.0077994,0.0109201 0.01874413,0.0259748 0.02432173,0.0334541 l 0.0101412,0.0135988 -0.002761,0.003036 c -0.00454,0.004992 -0.0102321,0.0200176 -0.0112042,0.029573 -0.0018167,0.017866 0.001634,0.033489 0.0102157,0.0462494 0.0183576,0.0272961 0.0529891,0.0303786 0.0748711,0.006664 0.016921,-0.0183379 0.0210735,-0.0459444 0.0106891,-0.0710667 -0.001894,-0.004581 -0.003588,-0.008692 -0.003763,-0.009135 -4.9117e-4,-0.001233 0.0569361,-0.0457294 0.0690927,-0.0535348 0.0589691,-0.037863 0.0878295,-0.0263558 0.0977088,0.0389586 0.002078,0.0137368 0.003306,0.0539419 0.002184,0.0714672 l -7.9947e-4,0.0124818 -0.004047,0 c -0.005757,0 -0.016055,0.003368 -0.0221298,0.007239 -0.011309,0.007205 -0.0220357,0.0239049 -0.0249863,0.0389012 -0.004908,0.0249479 0.005138,0.0525217 0.0236438,0.0648935 l 0.005541,0.003704 -0.002979,0.0121611 c -0.001639,0.006688 -0.004733,0.0188018 -0.006877,0.0269177 -0.004602,0.0174237 -0.007378,0.0324044 -0.007378,0.0398143 l 0,0.005334 -0.0128653,-9.6198e-4 c -0.0651397,-0.004871 -0.13423549,0.0121902 -0.17453634,0.0430943 -0.008332,0.00639 -0.00841,0.006418 -0.013139,0.004876 -0.005614,-0.001832 -0.02224463,-0.002007 -0.02598828,-2.7463e-4 -0.0021651,0.001002 -0.0047215,-3.282e-5 -0.01478145,-0.005985 -0.01441017,-0.008527 -0.0272376,-0.0129286 -0.04029771,-0.0138306 l -0.0095201,-6.5751e-4 -6.8124e-4,-0.007196 C 0.02031782,0.92817312 0.01290601,0.90004612 9.2757069e-4,0.87169858 -0.00346826,0.86129352 -0.0183526,0.83158974 -0.03226157,0.80546157 l -0.02521807,-0.0473723 0.006369,-0.006746 c 0.0035033,-0.00371 0.0079584,-0.009645 0.0099001,-0.0131889 0.009972,-0.0181895 0.01027629,-0.0441881 7.4085e-4,-0.0632338 -0.0034881,-0.006969 -0.01432482,-0.0188653 -0.02001112,-0.0219704 -0.0023406,-0.001278 -0.0044122,-0.002478 -0.0046054,-0.002669 -6.477e-4,-6.3771e-4 0.0043895,-0.0190339 0.0092146,-0.0336522 0.01890383,-0.0572738 0.040086,-0.0792516 0.06560933,-0.0680732 z m 0.03830481,0.02808 c 0.0035752,0.004229 0.0062541,0.00769 0.0059537,0.00769 -3.011e-4,0 -0.003473,-0.00346 -0.0070482,-0.00769 -0.0035752,-0.004229 -0.0062541,-0.00769 -0.0059537,-0.00769 3.0111e-4,0 0.003473,0.00346 0.0070482,0.00769 z m 0.10487194,0.0749411 c 0.009721,0.002411 0.0170597,0.007217 0.0238463,0.0156169 0.0175422,0.0217118 0.0172452,0.0534001 -6.9712e-4,0.0744027 -0.0264589,0.0309717 -0.0710551,0.0135754 -0.0772202,-0.0301222 -0.00389,-0.0275654 0.0136065,-0.055689 0.0375439,-0.0603507 0.008191,-0.001594 0.008279,-0.001592 0.0165272,4.5319e-4 z m -0.22110472,0.004498 c 0.01247042,0.005576 0.02368117,0.0196942 0.02756609,0.0347138 0.0013142,0.00508 0.0017447,0.0103748 0.001467,0.018041 -3.4266e-4,0.009452 -9.2488e-4,0.0121094 -0.004517,0.0206139 -0.0067717,0.0160319 -0.01880663,0.0264779 -0.03402223,0.0295287 -0.01910065,0.00383 -0.03936615,-0.009102 -0.04810365,-0.0306962 -0.003285,-0.008116 -0.003535,-0.009687 -0.003535,-0.0221921 0,-0.0124894 2.5285e-4,-0.0140824 0.003513,-0.0221394 0.003972,-0.009815 0.0127254,-0.0209217 0.0198372,-0.0251687 0.01179122,-0.007041 0.02584336,-0.008046 0.03779403,-0.002702 z m 0.44019943,0.0921338 c 0.0182318,0.010506 0.0288848,0.0337624 0.0258047,0.0563324 -0.002357,0.0172734 -0.0123517,0.0328117 -0.0259586,0.0403565 -0.006914,0.003834 -0.008144,0.004093 -0.0194819,0.004093 -0.0115918,0 -0.0124098,-1.8336e-4 -0.0194274,-0.004353 -0.009231,-0.005484 -0.0172864,-0.0153112 -0.0219019,-0.0267168 -0.003217,-0.00795 -0.003506,-0.009717 -0.003506,-0.0214788 0,-0.0117306 2.9355e-4,-0.013542 0.003465,-0.0213777 0.005853,-0.0144594 0.0150001,-0.0240297 0.0282734,-0.0295792 0.004126,-0.001725 0.007963,-0.002195 0.0154546,-0.001892 0.00866,3.4984e-4 0.0109239,9.547e-4 0.0172774,0.004615 z m 0.49265428,0.003939 c 0.0121195,0.004882 0.0216055,0.015052 0.0274114,0.0293968 0.003143,0.007755 0.003434,0.009597 0.003434,0.0213056 0,0.0117306 -2.9351e-4,0.013542 -0.003459,0.0213777 -0.005896,0.0145553 -0.0160002,0.0250899 -0.0286827,0.0298901 -0.004355,0.001651 -0.008332,0.002083 -0.0154675,0.001684 -0.008143,-4.5567e-4 -0.0107308,-0.001192 -0.0170884,-0.004853 -0.0183736,-0.0105881 -0.0290766,-0.0341698 -0.0256238,-0.0564579 0.003106,-0.0200245 0.014686,-0.0358483 0.0311054,-0.0424927 0.007676,-0.003103 0.0204629,-0.003036 0.0283734,1.4936e-4 z M 0.49148392,0.98466957 c 0.0132782,0.004152 0.0244331,0.0151304 0.0304293,0.0299486 0.003262,0.00805 0.003513,0.00965 0.003513,0.022166 0,0.012674 -2.1796e-4,0.014003 -0.003624,0.022103 -0.009204,0.021887 -0.0297585,0.034799 -0.048535,0.030493 -0.0151264,-0.00347 -0.0262678,-0.013003 -0.033362,-0.028545 -0.004247,-0.0093 -0.004262,-0.00939 -0.004262,-0.024143 0,-0.014297 1.2782e-4,-0.015101 0.003718,-0.023382 0.00598,-0.0137922 0.0184805,-0.0256756 0.0304933,-0.02899 0.006211,-0.001713 0.015509,-0.001563 0.0216292,3.5077e-4 z m -0.52779012,0.004068 c 0.02476927,0.007549 0.04019797,0.0366929 0.03411994,0.0644452 -0.00886741,0.040489 -0.05124865,0.054753 -0.07613369,0.025624 -0.01061841,-0.012435 -0.01593785,-0.030556 -0.01348959,-0.045966 0.0034452,-0.021684 0.01649092,-0.0384326 0.03430539,-0.0440391 0.007759,-0.002443 0.01334063,-0.002459 0.02119807,-6.363e-5 z M 0.10893269,0.9880761 c 0.0237591,0.005239 0.0408231,0.0327983 0.0371949,0.0600785 -0.002382,0.017912 -0.0125373,0.033427 -0.0271818,0.041528 -0.006725,0.00372 -0.008349,0.00409 -0.0178019,0.00406 C 0.08907367,1.0937057 0.08214916,1.091092 0.07322343,1.083201 0.06721543,1.077891 0.05921965,1.065004 0.0573001,1.057537 0.0495222,1.027275 0.0646059,0.99617091 0.09074224,0.98857731 c 0.0069573,-0.002021 0.01083555,-0.00213 0.01819042,-5.0889e-4 z m 0.2202729,0.004179 c 0.00999,0.005618 0.0174598,0.0142719 0.0221974,0.025721 0.004444,0.010743 0.005607,0.020275 0.003839,0.031502 -0.004502,0.028602 -0.0287468,0.048896 -0.0523361,0.043808 -0.0147365,-0.00318 -0.0278485,-0.015149 -0.0343176,-0.031331 -0.0117597,-0.029417 0.002755,-0.0641346 0.0307367,-0.0735222 0.002924,-9.8079e-4 0.008395,-0.001442 0.0134571,-0.001133 0.006913,4.2089e-4 0.0100263,0.001361 0.0164238,0.004958 z m 0.41500812,0.01241 c 0.009103,0.00174 0.0173556,0.00659 0.0242628,0.014233 0.0108545,0.012019 0.0154172,0.025224 0.0145779,0.042195 -9.4595e-4,0.01913 -0.0113367,0.036644 -0.026848,0.045242 -0.006837,0.00379 -0.008272,0.00412 -0.018366,0.00407 -0.0143599,-5.94e-5 -0.0209789,-0.003 -0.0307185,-0.01367 -0.0197671,-0.021645 -0.0204515,-0.054603 -0.001592,-0.076643 0.00675,-0.00789 0.0140458,-0.012612 0.0230034,-0.014907 0.007684,-0.00197 0.008066,-0.00198 0.0156802,-5.182e-4 z m 0.33810359,5.14e-5 c 0.01447,0.00316 0.027486,0.015246 0.034145,0.031704 0.00321,0.00792 0.0035,0.00971 0.00345,0.020838 -5.14e-5,0.00959 -5.889e-4,0.013658 -0.00254,0.01917 -0.00549,0.015546 -0.016347,0.027374 -0.02947,0.032119 -0.026289,0.00951 -0.053275,-0.010276 -0.058397,-0.042814 -0.00477,-0.030291 0.016878,-0.060831 0.044061,-0.062165 0.00158,-7.72e-5 0.00552,4.393e-4 0.00876,0.00115 z m -0.17182197,0.033286 c 0.0131395,0.00475 0.0226407,0.01448 0.0286587,0.02935 0.003169,0.00784 0.003434,0.00952 0.003434,0.021946 0,0.012511 -2.4997e-4,0.014075 -0.003535,0.022193 -0.0137038,0.033867 -0.050951,0.041679 -0.0734288,0.015402 -0.0186779,-0.021835 -0.0177133,-0.057847 0.002083,-0.077827 0.0124224,-0.012536 0.0277498,-0.016499 0.0427842,-0.011059 z"
   id="path3068"
   inkscape:connector-curvature="0"
   sodipodi:nodetypes="cccccscsccsccscccccsccccccccscscccccccccccccccsccscccccsccccccccsccccccccccssccccccssccccccccscscccccccccccscscccccsccccccsscscccsscccccscccccccccccsccccsssscscscccccsscsccccccsscccccccccccsccccccsccccccccsccccccsccccccccccccccscssccccccccssccccscccccccscccccccscsccsscscscccccccccccscccccccccccccscccccccccsscccccccsccssccccccccccsccccsscccccsccscccccsccccccscccccccccsccccccccccccccccscccscsccccccsccccscsccccccscscsccscscscccccsccccscccccscccsscccccscccccssccccscsscsccscccccccccccsccccccccccccsccscccccsscsscsccccccscscsssccccccccccsccccscccccccscccccsccsccccccccscsscccccccccsccccscccssccscccsccccccscsccccscscsccccccccccscsccsscccccccsscscccccccsccscccccccsccccccccccscccscccccscscccccccccccccccccccccccsccccccccccccccccccscsccc" /><text
   xml:space="preserve"
   style="font-size:0.04785214px;font-style:normal;font-weight:normal;line-height:125%;letter-spacing:0px;word-spacing:0px;fill:#000000;fill-opacity:1;stroke:none;font-family:Sans"
   x="0.8982749"
   y="-0.73095685"
   id="text3070-2-3-8"
   sodipodi:linespacing="125%"
   transform="scale(0.92429275,-1.0819083)"><tspan
     sodipodi:role="line"
     id="tspan3072-4-75-06"
     x="0.8982749"
     y="-0.73095685"
     dy="0">x<tspan
   style="font-size:0.01993839px"
   id="tspan3290">11</tspan></tspan></text>

<text
   xml:space="preserve"
   style="font-size:0.04785214px;font-style:normal;font-weight:normal;line-height:125%;letter-spacing:0px;word-spacing:0px;fill:#000000;fill-opacity:1;stroke:none;font-family:Sans"
   x="0.36185655"
   y="-0.72554386"
   id="text3070-2-3-8-1"
   sodipodi:linespacing="125%"
   transform="scale(0.92429275,-1.0819083)"><tspan
     sodipodi:role="line"
     id="tspan3072-4-75-06-8"
     x="0.36185655"
     y="-0.72554386"
     dy="0">x<tspan
   style="font-size:0.01993839px"
   id="tspan3290-9">10</tspan></tspan></text>

<text
   xml:space="preserve"
   style="font-size:0.04785214px;font-style:normal;font-weight:normal;line-height:125%;letter-spacing:0px;word-spacing:0px;fill:#000000;fill-opacity:1;stroke:none;font-family:Sans"
   x="-0.068523169"
   y="-0.95322776"
   id="text3070-2-3-8-1-8"
   sodipodi:linespacing="125%"
   transform="scale(0.92429275,-1.0819083)"><tspan
     sodipodi:role="line"
     id="tspan3072-4-75-06-8-9"
     x="-0.068523169"
     y="-0.95322776"
     dy="0">x<tspan
   style="font-size:0.01993839px"
   id="tspan3290-9-4">1</tspan></tspan></text>

<text
   xml:space="preserve"
   style="font-size:0.04785214px;font-style:normal;font-weight:normal;line-height:125%;letter-spacing:0px;word-spacing:0px;fill:#000000;fill-opacity:1;stroke:none;font-family:Sans"
   x="0.090390556"
   y="-0.95131314"
   id="text3070-2-3-8-1-1"
   sodipodi:linespacing="125%"
   transform="scale(0.92429275,-1.0819083)"><tspan
     sodipodi:role="line"
     id="tspan3072-4-75-06-8-6"
     x="0.090390556"
     y="-0.95131314"
     dy="0">x<tspan
   style="font-size:0.01993839px"
   id="tspan3290-9-5">2</tspan></tspan></text>

<text
   xml:space="preserve"
   style="font-size:0.04785214px;font-style:normal;font-weight:normal;line-height:125%;letter-spacing:0px;word-spacing:0px;fill:#000000;fill-opacity:1;stroke:none;font-family:Sans"
   x="0.31488347"
   y="-0.95178843"
   id="text3070-2-3-8-1-11"
   sodipodi:linespacing="125%"
   transform="scale(0.92429275,-1.0819083)"><tspan
     sodipodi:role="line"
     id="tspan3072-4-75-06-8-2"
     x="0.31488347"
     y="-0.95178843"
     dy="0">x<tspan
   style="font-size:0.01993839px"
   id="tspan3290-9-1">3</tspan></tspan></text>

<text
   xml:space="preserve"
   style="font-size:0.04785214px;font-style:normal;font-weight:normal;line-height:125%;letter-spacing:0px;word-spacing:0px;fill:#000000;fill-opacity:1;stroke:none;font-family:Sans"
   x="0.50379074"
   y="-0.94764233"
   id="text3070-2-3-8-1-3"
   sodipodi:linespacing="125%"
   transform="scale(0.92429275,-1.0819083)"><tspan
     sodipodi:role="line"
     id="tspan3072-4-75-06-8-28"
     x="0.50379074"
     y="-0.94764233"
     dy="0">x<tspan
   style="font-size:0.01993839px"
   id="tspan3290-9-7">4</tspan></tspan></text>

<text
   xml:space="preserve"
   style="font-size:0.04785214px;font-style:normal;font-weight:normal;line-height:125%;letter-spacing:0px;word-spacing:0px;fill:#000000;fill-opacity:1;stroke:none;font-family:Sans"
   x="0.77949643"
   y="-0.96870315"
   id="text3070-2-3-8-1-17"
   sodipodi:linespacing="125%"
   transform="scale(0.92429275,-1.0819083)"><tspan
     sodipodi:role="line"
     id="tspan3072-4-75-06-8-23"
     x="0.77949643"
     y="-0.96870315"
     dy="0">x<tspan
   style="font-size:0.01993839px"
   id="tspan3290-9-0">5</tspan></tspan></text>

<text
   xml:space="preserve"
   style="font-size:0.04785214px;font-style:normal;font-weight:normal;line-height:125%;letter-spacing:0px;word-spacing:0px;fill:#000000;fill-opacity:1;stroke:none;font-family:Sans"
   x="0.95372713"
   y="-0.99726403"
   id="text3070-2-3-8-1-6"
   sodipodi:linespacing="125%"
   transform="scale(0.92429275,-1.0819083)"><tspan
     sodipodi:role="line"
     id="tspan3072-4-75-06-8-1"
     x="0.95372713"
     y="-0.99726403"
     dy="0">x<tspan
   style="font-size:0.01993839px"
   id="tspan3290-9-77">6</tspan></tspan></text>

<text
   xml:space="preserve"
   style="font-size:0.04785214px;font-style:normal;font-weight:normal;line-height:125%;letter-spacing:0px;word-spacing:0px;fill:#000000;fill-opacity:1;stroke:none;font-family:Sans"
   x="1.1450311"
   y="-0.97045934"
   id="text3070-2-3-8-1-31"
   sodipodi:linespacing="125%"
   transform="scale(0.92429275,-1.0819083)"><tspan
     sodipodi:role="line"
     id="tspan3072-4-75-06-8-4"
     x="1.1450311"
     y="-0.97045934"
     dy="0">x<tspan
   style="font-size:0.01993839px"
   id="tspan3290-9-47">7</tspan></tspan></text>

<text
   xml:space="preserve"
   style="font-size:0.04785214px;font-style:normal;font-weight:normal;line-height:125%;letter-spacing:0px;word-spacing:0px;fill:#000000;fill-opacity:1;stroke:none;font-family:Sans"
   x="0.90745932"
   y="-0.53791404"
   id="text3070-2-3-8-1-5"
   sodipodi:linespacing="125%"
   transform="scale(0.92429275,-1.0819083)"><tspan
     sodipodi:role="line"
     id="tspan3072-4-75-06-8-3"
     x="0.90745932"
     y="-0.53791404"
     dy="0">x<tspan
   style="font-size:0.01993839px"
   id="tspan3290-9-9">15</tspan></tspan></text>

<text
   xml:space="preserve"
   style="font-size:0.04785214px;font-style:normal;font-weight:normal;line-height:125%;letter-spacing:0px;word-spacing:0px;fill:#000000;fill-opacity:1;stroke:none;font-family:Sans"
   x="0.67227751"
   y="-0.51478016"
   id="text3070-2-3-8-1-60"
   sodipodi:linespacing="125%"
   transform="scale(0.92429275,-1.0819083)"><tspan
     sodipodi:role="line"
     id="tspan3072-4-75-06-8-29"
     x="0.67227751"
     y="-0.51478016"
     dy="0">x<tspan
   style="font-size:0.01993839px"
   id="tspan3290-9-2">14</tspan></tspan></text>

<text
   xml:space="preserve"
   style="font-size:0.04785214px;font-style:normal;font-weight:normal;line-height:125%;letter-spacing:0px;word-spacing:0px;fill:#000000;fill-opacity:1;stroke:none;font-family:Sans"
   x="0.88480073"
   y="-0.38490301"
   id="text3070-2-3-8-1-2"
   sodipodi:linespacing="125%"
   transform="scale(0.92429275,-1.0819083)"><tspan
     sodipodi:role="line"
     id="tspan3072-4-75-06-8-0"
     x="0.88480073"
     y="-0.38490301"
     dy="0">x<tspan
   style="font-size:0.01993839px"
   id="tspan3290-9-52">17</tspan></tspan></text>

<text
   xml:space="preserve"
   style="font-size:0.04785214px;font-style:normal;font-weight:normal;line-height:125%;letter-spacing:0px;word-spacing:0px;fill:#000000;fill-opacity:1;stroke:none;font-family:Sans"
   x="0.72748476"
   y="-0.23747739"
   id="text3070-2-3-8-1-25"
   sodipodi:linespacing="125%"
   transform="scale(0.92429275,-1.0819083)"><tspan
     sodipodi:role="line"
     id="tspan3072-4-75-06-8-5"
     x="0.72748476"
     y="-0.23747739"
     dy="0">x<tspan
   style="font-size:0.01993839px"
   id="tspan3290-9-29">18</tspan></tspan></text>

<text
   xml:space="preserve"
   style="font-size:0.04785214px;font-style:normal;font-weight:normal;line-height:125%;letter-spacing:0px;word-spacing:0px;fill:#000000;fill-opacity:1;stroke:none;font-family:Sans"
   x="0.52676618"
   y="-0.34437916"
   id="text3070-2-3-8-1-58"
   sodipodi:linespacing="125%"
   transform="scale(0.92429275,-1.0819083)"><tspan
     sodipodi:role="line"
     id="tspan3072-4-75-06-8-01"
     x="0.52676618"
     y="-0.34437916"
     dy="0">x<tspan
   style="font-size:0.01993839px"
   id="tspan3290-9-3">16</tspan></tspan></text>

<text
   xml:space="preserve"
   style="font-size:0.04785214px;font-style:normal;font-weight:normal;line-height:125%;letter-spacing:0px;word-spacing:0px;fill:#000000;fill-opacity:1;stroke:none;font-family:Sans"
   x="0.33338922"
   y="-0.41889083"
   id="text3070-2-3-8-1-67"
   sodipodi:linespacing="125%"
   transform="scale(0.92429275,-1.0819083)"><tspan
     sodipodi:role="line"
     id="tspan3072-4-75-06-8-00"
     x="0.33338922"
     y="-0.41889083"
     dy="0">x<tspan
   style="font-size:0.01993839px"
   id="tspan3290-9-35">13</tspan></tspan></text>

<text
   xml:space="preserve"
   style="font-size:0.04785214px;font-style:normal;font-weight:normal;line-height:125%;letter-spacing:0px;word-spacing:0px;fill:#000000;fill-opacity:1;stroke:none;font-family:Sans"
   x="0.13426845"
   y="-0.64130342"
   id="text3070-2-3-8-1-22"
   sodipodi:linespacing="125%"
   transform="scale(0.92429275,-1.0819083)"><tspan
     sodipodi:role="line"
     id="tspan3072-4-75-06-8-26"
     x="0.13426845"
     y="-0.64130342"
     dy="0">x<tspan
   style="font-size:0.01993839px"
   id="tspan3290-9-15">9</tspan></tspan></text>

<text
   xml:space="preserve"
   style="font-size:0.04785214px;font-style:normal;font-weight:normal;line-height:125%;letter-spacing:0px;word-spacing:0px;fill:#000000;fill-opacity:1;stroke:none;font-family:Sans"
   x="-0.110328"
   y="-0.64321804"
   id="text3070-2-3-8-1-55"
   sodipodi:linespacing="125%"
   transform="scale(0.92429275,-1.0819083)"><tspan
     sodipodi:role="line"
     id="tspan3072-4-75-06-8-98"
     x="-0.110328"
     y="-0.64321804"
     dy="0">x<tspan
   style="font-size:0.01993839px"
   id="tspan3290-9-91">8</tspan></tspan></text>

<text
   xml:space="preserve"
   style="font-size:0.04785214px;font-style:normal;font-weight:normal;line-height:125%;letter-spacing:0px;word-spacing:0px;fill:#000000;fill-opacity:1;stroke:none;font-family:Sans"
   x="-0.080327787"
   y="-0.39431766"
   id="text3070-2-3-8-1-65"
   sodipodi:linespacing="125%"
   transform="scale(0.92429275,-1.0819083)"><tspan
     sodipodi:role="line"
     id="tspan3072-4-75-06-8-60"
     x="-0.080327787"
     y="-0.39431766"
     dy="0">x<tspan
   style="font-size:0.01993839px"
   id="tspan3290-9-07">12</tspan></tspan></text>

<text
   xml:space="preserve"
   style="font-size:0.04785214px;font-style:normal;font-weight:normal;line-height:125%;letter-spacing:0px;word-spacing:0px;fill:#000000;fill-opacity:1;stroke:none;font-family:Sans"
   x="0.3408893"
   y="-0.15881962"
   id="text3070-2-3-8-1-30"
   sodipodi:linespacing="125%"
   transform="scale(0.92429275,-1.0819083)"><tspan
     sodipodi:role="line"
     id="tspan3072-4-75-06-8-69"
     x="0.3408893"
     y="-0.15881962"
     dy="0">x<tspan
   style="font-size:0.01993839px"
   id="tspan3290-9-8">19</tspan></tspan></text>

<text
   xml:space="preserve"
   style="font-size:0.04785214px;font-style:normal;font-weight:normal;line-height:125%;letter-spacing:0px;word-spacing:0px;fill:#000000;fill-opacity:1;stroke:none;font-family:Sans"
   x="0.57463175"
   y="-0.10313725"
   id="text3070-2-3-8-1-23"
   sodipodi:linespacing="125%"
   transform="scale(0.92429275,-1.0819083)"><tspan
     sodipodi:role="line"
     id="tspan3072-4-75-06-8-22"
     x="0.57463175"
     y="-0.10313725"
     dy="0">x<tspan
   style="font-size:0.01993839px"
   id="tspan3290-9-74">20</tspan></tspan></text>

<text
   xml:space="preserve"
   style="font-size:0.04785214px;font-style:normal;font-weight:normal;line-height:125%;letter-spacing:0px;word-spacing:0px;fill:#000000;fill-opacity:1;stroke:none;font-family:Sans"
   x="0.25664589"
   y="0.061519936"
   id="text3070-2-3-8-1-57"
   sodipodi:linespacing="125%"
   transform="scale(0.92429275,-1.0819083)"><tspan
     sodipodi:role="line"
     id="tspan3072-4-75-06-8-7"
     x="0.25664589"
     y="0.061519936"
     dy="0">x<tspan
   style="font-size:0.01993839px"
   id="tspan3290-9-36">21</tspan></tspan></text>

<text
   xml:space="preserve"
   style="font-size:40px;font-style:normal;font-weight:normal;line-height:125%;letter-spacing:0px;word-spacing:0px;fill:#000000;fill-opacity:1;stroke:none;font-family:Sans"
   x="385.54779"
   y="87.347641"
   id="text3538"
   sodipodi:linespacing="125%"
   transform="matrix(0.00184289,0,0,-0.00215715,-0.21766957,1.2232542)"><tspan
     sodipodi:role="line"
     id="tspan3540"
     x="385.54779"
     y="87.347641" /></text>

<text
   xml:space="preserve"
   style="font-size:0.04785214px;font-style:normal;font-weight:normal;line-height:125%;letter-spacing:0px;word-spacing:0px;fill:#000000;fill-opacity:1;stroke:none;font-family:Sans"
   x="-0.069871724"
   y="0.26200214"
   id="text3070-2-3-8-1-57-3"
   sodipodi:linespacing="125%"
   transform="scale(0.92429275,-1.0819083)"><tspan
     sodipodi:role="line"
     id="tspan3072-4-75-06-8-7-3"
     x="-0.069871724"
     y="0.26200214"
     dy="0">x<tspan
   style="font-size:0.01993839px"
   id="tspan3290-9-36-5">1  </tspan>=15</tspan><tspan
     sodipodi:role="line"
     x="-0.069871724"
     y="0.32181731"
     dy="0 0 0 0 0 0 0"
     id="tspan3568">x<tspan
   style="font-size:0.01993839px"
   id="tspan3570">18</tspan>=16</tspan></text>

</g></g></svg>